# xmcd
#
# Track frame offsets: 
#        150
#        17209
#        32173
#        42710
#        53032
#        63974
#        74733
#        90368
#        102984
#        117386
#        131377
#        142903
#        154610
#        166680
#        178375
#        190159
#        200300
#        220376
#        231888
#        246690
#        259596
#        274043
#        287287
#        299334
#        315924
#
# Disc length: 4373 seconds
#
# Revision: 0
# Processed by: cddbd v1.5.2PL0 Copyright (c) Steve Scherf et al.
# Submitted via: ExactAudioCopy v1.3
#
DISCID=72111319
DTITLE=Various Artist - Greatest hits - Blues CD3
DYEAR=2009
DGENRE=Blues
TTITLE0=Billie Holiday - Lady Sings The Blues
TTITLE1=Bobby "Blue" Bland - Lovin' Blues
TTITLE2=Ray Charles - A Bit Of Soul
TTITLE3=The Dreamers - Bye Bye
TTITLE4=Bo Diddley - I'm Sorry
TTITLE5=Charles Brown - Trouble Blues
TTITLE6=Bo Diddley - Cops And Robbers
TTITLE7=Bobby "Blue" Bland - I Learned My Lesson
TTITLE8=John Lee Hooker - Whistle Done Blown
TTITLE9=B.B. King - Blind Love
TTITLE10=Bo Diddley - Bo's Guitar
TTITLE11=Johnny "Guitar" Watson - Motor Head Baby
TTITLE12=Lightnin' Hopkins - Shotgun Aka Shotgun Blues
TTITLE13=Muddy Waters - Gypsy Woman
TTITLE14=B.B. King - Shake It Up And Go
TTITLE15=Shirley Gunter And "The Queens - What Difference Does It Make
TTITLE16=Ray Charles - The Man I Love
TTITLE17=John Lee Hooker - Wheel And Deal
TTITLE18=T-Bone Walker - I Got The Blues Again
TTITLE19=Muddy Waters - I'm Your Hoochie Coochie Man
TTITLE20=Bobby "Blue" Bland - I.O.U. Blues
TTITLE21=Ray Charles - Hard Times
TTITLE22=Muddy Waters - My Life Is Ruined
TTITLE23=Billie Holiday - Stormy Weather
TTITLE24=Julia Lee and Her Boy Friends - It Comes In Like A Lion
EXTD=
EXTT0=
EXTT1=
EXTT2=
EXTT3=
EXTT4=
EXTT5=
EXTT6=
EXTT7=
EXTT8=
EXTT9=
EXTT10=
EXTT11=
EXTT12=
EXTT13=
EXTT14=
EXTT15=
EXTT16=
EXTT17=
EXTT18=
EXTT19=
EXTT20=
EXTT21=
EXTT22=
EXTT23=
EXTT24=
PLAYORDER=
